<svg width="17" height="16" viewBox="0 0 17 16" fill="none" xmlns="http://www.w3.org/2000/svg">
<mask id="mask0_1820_6780" style="mask-type:alpha" maskUnits="userSpaceOnUse" x="0" y="0" width="17" height="16">
<path d="M8.00195 16C12.4202 16 16.002 12.4183 16.002 8C16.002 7.41157 15.9384 6.83798 15.8179 6.28571H8.00195V9.6H12.4074C11.7535 11.4 10.0279 12.6857 8.00195 12.6857C5.4141 12.6857 3.31624 10.5878 3.31624 8C3.31624 5.41215 5.4141 3.31429 8.00195 3.31429C9.32104 3.31429 10.5128 3.85935 11.3644 4.73654L13.6965 2.38108C12.2459 0.911091 10.2303 0 8.00195 0C3.58368 0 0.00195312 3.58172 0.00195312 8C0.00195312 12.4183 3.58368 16 8.00195 16Z" fill="#C4C4C4"/>
</mask>
<g mask="url(#mask0_1820_6780)">
<path d="M-5.14062 8.03125L0.00223204 3.65927L5.71652 8.11641L0.0022322 12.345L-5.14062 8.03125Z" fill="#FEBD01"/>
<path d="M0.00195312 3.66016L6.4591 -2.79699L13.4305 -0.282701L16.4591 5.08873L7.83052 5.43158L5.71624 8.1173L0.00195312 3.66016Z" fill="#FF4131"/>
<path d="M7.66016 5.94342L16.9173 5.71484L16.803 9.82913L14.5173 14.7434L9.83158 11.0863L7.66016 10.0577V5.94342Z" fill="#0286F7"/>
<path d="M0.00195312 12.3458L5.71624 8.11719L6.34481 10.9743L9.83052 11.0886L14.5162 14.7458L9.77338 16.8029L3.88767 16.46L0.00195312 12.3458Z" fill="#01A94D"/>
</g>
</svg>
